<?xml version="1.0" encoding="UTF-8"?>
<svg id="Layer_2" data-name="Layer 2" xmlns="http://www.w3.org/2000/svg" viewBox="0 0 542 584">
  <defs>
    <style>
      .cls-1{ 
        stroke-width: 0px;
        fill: currentColor;
      }
    </style>
  </defs>
  <g id="Layer_1-2" data-name="Layer 1">
    <g id="icon_orange" data-name="icon orange">
      <path id="Icon" class="cls-1" d="m430.52,33.5H113.95c-56.31,0-101.96,45.65-101.96,101.96v316.58c0,56.31,45.65,101.96,101.96,101.96h316.58c56.31,0,101.96-45.65,101.96-101.96V135.46c0-56.31-45.65-101.96-101.96-101.96Zm-58.95,239.78c0,3.85-3.8,6.54-7.43,5.27l-80.7-27.55c-2.07-.71-4.21.83-4.21,3.01v113.9h-.22c-2.38,31.38-24.54,55.97-51.55,55.97-28.59,0-51.77-27.56-51.77-61.56s23.18-61.56,51.77-61.56c14.91,0,28.33,7.5,37.78,19.49v-75.46s0-72.76,0-72.76v-3.34c0-3.84,3.79-6.52,7.41-5.25l95.31,32.5c2.17.76,3.62,2.81,3.62,5.11v72.23Z"/>
    </g>
  </g>
</svg>